<?xml version="1.0" encoding="utf-8"?>
<!-- Generator: Adobe Illustrator 22.0.1, SVG Export Plug-In . SVG Version: 6.00 Build 0)  -->
<svg version="1.1" id="svg2424" xmlns:svg="http://www.w3.org/2000/svg"
	 xmlns="http://www.w3.org/2000/svg" xmlns:xlink="http://www.w3.org/1999/xlink" x="0px" y="0px" viewBox="0 0 166.2 166.2"
	 style="enable-background:new 0 0 166.2 166.2;" xml:space="preserve">
<style type="text/css">
	.st0{fill:#1793D1;}
</style>
<path id="path2518" class="st0" d="M83.1,0C75.7,18.1,71.2,30,63,47.6c5,5.4,11.2,11.6,21.3,18.6c-10.8-4.5-18.2-8.9-23.7-13.6
	C50,74.6,33.5,106,0,166.2C26.3,151,46.8,141.6,65.8,138c-0.8-3.5-1.3-7.3-1.2-11.3l0-0.8c0.4-16.9,9.2-29.8,19.6-29
	s18.5,15.3,18.1,32.2c-0.1,3.2-0.4,6.2-1.1,9.1c18.8,3.7,39,13,65,28c-5.1-9.4-9.7-17.9-14.1-26c-6.9-5.3-14.1-12.3-28.7-19.8
	c10.1,2.6,17.3,5.6,22.9,9C101.9,46.7,98.3,35.7,83.1,0z"/>
</svg>
