<?xml version="1.0" encoding="utf-8"?>
<!-- Generator: Adobe Illustrator 22.0.1, SVG Export Plug-In . SVG Version: 6.00 Build 0)  -->
<svg version="1.1" id="Layer_1" xmlns="http://www.w3.org/2000/svg" xmlns:xlink="http://www.w3.org/1999/xlink" x="0px" y="0px"
	 viewBox="0 0 601.3 767.9" style="enable-background:new 0 0 601.3 767.9;" xml:space="preserve">
<style type="text/css">
	.st0{fill:#010101;}
	.st1{fill:#74A728;}
	.st2{fill:#BB1142;}
	.st3{fill:#BB1141;}
</style>
<path class="st0" d="M601.3,434v28c-0.8,0.2-0.9,0.8-1,1.5c-3.4,22.5-13,42.1-27.7,59.3c-1.6,1.9-2.3,3.9-2.8,6.2
	c-5.6,25.5-14.4,50.1-22.1,74.9c-11.1,35.9-36.1,61.1-70.6,76.4c-2.4,1.1-4.8,2.2-6.9,3.8c-21.2,16-43.5,30-68.5,39.3
	c-3.7,1.4-6.7,3.4-9.5,6.1c-18.4,17.9-39.7,30.6-65,35.9c-4.6,0.9-9.1,0.6-13.2,2.5h-29c-0.2-0.8-0.8-0.9-1.4-1
	c-30.1-3.9-54.9-18.1-76.2-39.2c-1.3-1.3-2.6-2.4-4.4-3.1c-26.4-9.5-49.9-24-72.2-40.8c-1.3-1-2.7-2-4.2-2.6
	c-37.4-15.7-62.7-42.9-74.4-81.5c-5.5-18.1-10.4-36.3-16.3-54.3c-1.6-4.7-2.8-9.6-3.8-14.5c-0.7-3.9-2.3-7.1-4.8-10.1
	c-11.5-13.7-19.5-29.3-24.1-46.6C2,469.8,2.1,465.1,0,461v-28c2-1.1,1.3-3.2,1.6-4.9c6.3-32.3,21.2-59.2,48.6-78.5
	c4-2.8,6.4-7.6,6.9-12.7c0.5-5,0.5-10,0.8-15c2.6-38.3,18.5-69.3,50.5-91.3c5.4-3.7,11-7.3,16.8-11.1c-3.9-1.3-7.3-2.3-10.7-3.5
	c-6-2.2-11.1-5.8-13.2-12c-1.2-3.6-3.3-4.9-6.4-5.9c-8.8-2.8-16.2-7.6-18.8-16.9c-1.1-4-3.4-6.4-6.6-8.7c-7.8-5.5-14.5-12-15-22.3
	c-0.2-2.8-1.1-4.5-3.2-6.2c-6.4-5.2-10.3-11.8-9.4-20.4c0.4-3.3-0.7-5.5-2.6-8c-4.9-6.4-9.3-13.3-6.5-21.9c0.9-2.8,0.3-4.6-1.3-6.7
	c-5.3-7.5-7.1-15.5-1.7-23.7c2.1-3.2,1.9-5.7,0.6-9.1c-5-13.4,1.5-25.5,15.1-26.8c7.3-0.7,13.1-2.5,18.9-7.2
	c6.8-5.6,15.8-5.4,24.4-5.2c1.6,0.1,3.3,0.8,4.7-0.8c5.4-6.3,12.6-6.7,20.1-6.2c2,0.1,3.8,0,5.6-1.3c6.7-5.2,14.5-6.6,22.2-3.8
	c6.9,2.5,12.3,0.8,17.7-2.9h8c4.7,1.9,9.3,3.8,14,5.7c1.6,0.7,3.2,0.6,4.9,0.1c7.3-2.2,14.1-1.3,20.5,2.9c2.2,1.4,4.4,3.1,7.3,2.5
	c11.5-2.3,20.6,1.9,27.8,10.7c2,2.4,4.2,3.6,7.3,3c4.6-0.9,8.3,1.1,11.9,3.8c14,10.4,23.6,24.2,31.2,39.6c3.4,6.9,5.8,14.1,8.6,21.9
	c1.7-4.6,3-8.5,4.5-12.4c7.9-19.4,18.7-36.7,35.9-49.4c2.8-2.1,5.6-4.3,9.5-3.5c4.6,0.9,7.8-0.9,10.7-4.4c6.6-8,15.1-11.3,25.4-9.4
	c3.5,0.7,6.1-1.1,8.8-2.7c6.2-3.9,12.7-4.7,19.6-2.7c2,0.6,3.8,0.6,5.8-0.2c4.4-1.9,8.9-3.6,13.3-5.4h7c1.5,1.8,4.1,0.8,5.7,2.3
	c3.2,3.2,6.6,2.3,10.5,1.1c8.2-2.5,16.5-2.7,23.9,2.6c2.3,1.7,4.5,2.3,7.3,2c5.7-0.4,11.8-0.6,16.1,3.5c3.4,3.3,7,3.6,11.2,3.5
	c9.4-0.2,18.5,1.1,25.3,8.3c2.7,2.9,5.3,3.5,9,3.5c18.3-0.1,26.7,12.3,19.9,29.3c-0.8,1.9-0.9,3.3,0.3,5c6.4,9,5.2,17.7-1,26.3
	c-0.8,1.1-2.1,2.1-1.4,3.9c3.7,9.8-0.7,17.5-6.5,24.7c-1.7,2.1-2.5,4-2.1,6.7c1,7.9-1.9,14.5-7.7,19.6c-3.1,2.7-4.5,5.4-5,9.5
	c-1.2,9.9-8.2,15.9-15.8,21.3c-1.7,1.2-4,1.8-4.5,4.4c-2.3,11.8-10.6,17.6-21.1,20.9c-2.2,0.7-3.8,1.2-4.5,3.8
	c-1.8,6.3-6.3,10.5-12.3,12.9c-3.8,1.5-7.8,2.8-12.2,4.3c4.6,3,8.8,5.6,13,8.4c21.3,14.2,37.9,32.3,46.7,56.8
	c5.9,16.3,8,33.2,8.3,50.5c0.1,6,2.8,11.2,7.4,14.5c23.6,16.7,37.9,39.6,45.7,67.1C598.9,422.4,600,428.2,601.3,434z"/>
<path class="st1" d="M468,21.9c-2,2.2-4,4.4-6,6.6c-1.3,1.5-1.7,3.4-0.7,5.1c1.3,2.2,3,0.5,4.4,0c9-3.2,18.1-5.3,28.2-6.7
	c-2.1,2.4-4,4.2-5.6,6.3c-1.2,1.6-2,3.5-0.4,5.5c1.5,2,3.1,0.5,4.5,0.1c9.1-2.8,18.4-4.7,28-4c2.2,0.2,4.3,0.2,6.5,1.5
	c-1.3,3.6-5.5,5.1-7.3,9.5c11.5,0,22.5,0,34.6,0c-2.6,4.1-4.6,7.3-6.6,10.5c-2.7,4.2-4.4,8.9-6.1,13.6c-1.4,3.9,0.3,4.8,3.6,4.8
	c3.1,0,6.2-1.1,10-0.3c-2.1,5.6-6,9.6-10,13.4c-2.9,2.8-6.1,5.2-9,7.9c-2.3,2.1-1.6,3.5,1.2,4.6c4.2,1.5,8.1-0.4,12.7-0.9
	c-4.1,8.6-11.2,14-17.4,20.1c-1.7,1.7-5.4,3.2-4.4,5.3c1.1,2.4,4.9,2,7.7,1.9c1.3-0.1,2.6-0.3,5-0.6c-8,9.5-17.4,15.9-27.1,22.5
	c4.2,3.3,8.8,2,13.8,2.8c-9.6,9.8-22,14.5-33.5,20.9c3.7,3.5,8.2,3,12.9,4c-5.4,4.5-11.4,6.5-17.3,8.6c-4.7,1.7-9.5,3.2-14.3,4.6
	c-3.2,0.9-2.7,2.2-0.7,3.9c1.9,1.7,4.4,2.3,7.3,3.4c-6.4,3.8-13.2,4.5-19.9,5.3c-4.8,0.5-9.6,0.8-14.4,1.4c-1.5,0.2-3.8,0.1-4.1,2.1
	c-0.3,1.7,1.2,3,2.5,4.1c1.5,1.2,3.2,2.3,5.4,3.8c-4.6,1.1-8.9,0.7-13,0.5c-18.8-0.8-37.1-3.6-53.9-12.8
	c-12.4-6.8-21.5-16.5-26.7-29.9c-1.6-4-1.2-6.9,2-10.1c19.9-20.2,42.9-36.4,66.7-51.4c18.2-11.5,36.9-21.9,55.9-32
	c1-0.5,1.9-1.1,3.8-2.2c-4.4-0.4-7.2,1.5-10.1,2.5c-44.9,16.7-87.1,38.2-125,67.8c-8.5,6.6-8.5,6.6-17.2-0.1
	c-14.1-10.9-18.2-25.5-14.9-42.2c4.5-22.8,16.6-41.5,32.5-58c0.2-0.2,0.6-0.2,0.9-0.3c0.2,0.3,0.5,0.5,0.6,0.8
	c3.6,9.9,3.5,9.8,10.5,2.1c5.5-6.1,10.6-12.7,18.3-18.3c0,3.6-0.2,6.4,0.1,9.1c0.2,1.7,1.2,3.3,2.8,3.9c2,0.8,2.4-1.4,3.3-2.4
	c5.6-6,11.2-11.9,18.8-15.3v-0.1c0.5,3-1.4,6.1,0.5,9.2c1.7,2.7,3,4,6,1.2c5.9-5.4,12.3-10.1,19.7-13.3c1-0.5,2-1.2,3.8-0.8
	c-1.1,1.9-2.1,3.6-3.1,5.3c-1.3,2.3-1,4.6,0.8,6.4c1.9,2.1,3.3-0.3,4.6-1.1C448.3,26.8,457.4,22.3,468,21.9
	C468,22,468,21.9,468,21.9z"/>
<path class="st1" d="M135.2,21.7c10.1,0.9,19.1,4.9,27.8,9.7c1.5,0.9,3,3.4,5.1,1.5c2.3-2.1,1.9-4.7,0.5-7.3
	c-0.9-1.6-1.8-3.1-2.7-4.7l0.2-0.2c7.9,2.1,14.1,7.1,20.5,11.9c2,1.5,3.6,5.5,6.7,3.6c3.2-2,3.4-5.8,2.5-9.5
	c-0.2-0.6-0.2-1.2-0.4-2.4c7.7,4.1,13.5,9.4,18.9,15.4c1,1.1,1.4,3.6,3.6,2.7c1.9-0.8,3-2.7,3.1-4.8c0.1-2.3,0-4.7,0-7.5
	c4.1,2.3,7,5.4,9.9,8.5c4.3,4.7,8.5,9.4,12.6,14.2c2.1,2.4,2.9,1.6,4.1-0.8c1.1-2.3,0.7-6.7,2.9-6.8c2.6-0.1,4.4,3.6,6.3,5.9
	c12.7,15.3,22.8,32,26.8,51.8c4,19.6-3.3,35.9-20.2,46c-3.1,1.9-5.3,2-8.3-0.5c-39.5-31.6-84-54.2-131.3-71.6
	c-1.7-0.6-3.3-1.3-5.6-0.4c16.4,8.8,32.4,17.6,48,27.1c27.2,16.6,53.6,34.3,76.2,57.1c3.5,3.5,3.9,6.4,2.1,10.9
	c-4.7,11.6-12.1,20.7-22.6,27.1c-21.5,13.3-45.5,15.4-71.2,15.2c2.9-2.3,5-3.6,6.7-5.3c2.8-2.8,2.4-4.6-1.6-5.2
	c-7.4-1.1-14.9-1.6-22.3-2.6c-4.3-0.5-8.4-1.7-12.7-4.2c3.8-1.7,7.5-2.4,9.2-6.4c-11.4-4.3-23.6-6.4-34.3-14.1
	c4.5-1.3,9-0.5,12.6-4.1c-11.1-6.7-23.5-11.1-33.3-21c5-0.5,9.5,0.2,14.1-2.4c-9.6-6.8-19.1-13.1-27-22.4c3.4-0.1,6.1,1,8.8,0.1
	c1.4-0.4,3.4,0.1,4-1.6c0.5-1.7-1.4-2.4-2.4-3.4c-4.5-4.4-9.2-8.7-13.6-13.2c-2.2-2.2-4.3-4.6-5.3-7.8c0.2-0.2,0.5-0.5,0.7-0.7
	c3.8,0.3,7.4,1.9,11.3,0.4c2.6-1,3.3-2.2,1.1-4.2c-2.5-2.4-5.2-4.7-7.8-7c-3.7-3.2-7-6.7-9.5-10.8c-0.7-1.1-2-2.3-1.1-3.6
	c0.8-1.2,2.5-0.3,3.7-0.4c0.3,0,0.7,0,1,0.1c10.3,0.9,10.5,0.7,6.5-9.1c-2.6-6.5-6.5-12.2-11.1-19c12.2,0,23.2,0,35,0
	c-2.1-4.4-5.7-6.2-8-9.9c8.8-2.4,17.2-1.5,25.6,0.3c3.4,0.7,6.8,1.7,10.1,2.7c1.5,0.4,2.8,1.1,4-0.6c1-1.5,0.7-2.8,0-4.2
	c-1.3-2.7-4-4.4-6.1-7.2c9.9,1.3,18.8,3.4,27.6,6.5c1.5,0.5,3.4,2.4,4.9,0.2c1.4-2.1,0.3-4.2-1.2-5.9c-1.8-2-3.6-3.9-5.4-5.8
	L135.2,21.7z"/>
<path class="st2" d="M284.1,390.3c-0.3,46.7-35.1,90.1-80.2,99.8c-41,8.8-78.7-17.4-84.9-58.9c-7.5-50.5,26.9-101.7,76.4-113.7
	c43.6-10.6,83.4,17.7,87.7,62.4C283.5,383.4,283.8,386.9,284.1,390.3z"/>
<path class="st2" d="M483.2,412.8c0,32.5-16.7,59.5-44,69.8c-25.6,9.7-50,5.2-72.4-9.2c-31.2-20.2-48.4-49.4-49.3-86.6
	c-0.8-35.5,18.7-64.6,51.6-73.3c26.2-6.9,49.7,0.3,71.1,15.8C467,348.8,483.2,380.5,483.2,412.8z"/>
<path class="st2" d="M302.4,637.4c-32.6-1-59.3-13.4-76.4-41.9c-20-33.2-12.5-72.7,17.8-99c36.6-31.8,97.9-26.5,128.3,11.2
	c30.5,37.7,20,92.4-22.5,117C335,633.1,319.4,637.6,302.4,637.4z"/>
<path class="st3" d="M529.2,567.9c2,49.6-46.6,92.3-83.3,98.5c-8.3,1.4-16.6,2.1-24.8,0.2c-16.1-3.6-23.7-9-24.8-30.4
	c-1.1-22,5.6-42.5,16.1-61.6c15.3-27.8,37.1-49.4,65.3-64.2c7.8-4.1,16.2-5.9,25.1-3.9c7.8,1.8,13.5,6.1,17.1,13.3
	C526.6,534,528.8,548.8,529.2,567.9z"/>
<path class="st3" d="M70.7,559.1c-0.2-7,0.6-14.7,3.3-22.2c4.7-13.2,13.5-19.4,30.1-18.4c17.9,1.1,32.4,10.2,46.1,20.9
	c26.2,20.4,43,46.5,48.2,79.6c1.5,9.4,1.7,18.9-1.1,28.2c-2.8,9.1-8.7,14.6-18,16.8c-15.8,3.7-30.9,1.2-45.2-5.5
	C99,642.2,78.8,614.3,72,576.4C71,570.9,70.7,565.5,70.7,559.1z"/>
<path class="st3" d="M303.1,307.8c-20.3,0.3-39.8-3-57.7-12.9c-7.8-4.3-14.7-9.7-19.6-17.4c-5.6-8.9-6-17.8,0.4-26.5
	c11.4-15.5,27-25.3,45-30.7c36.7-11.2,69.2-2.1,96.9,23.5c18.4,17.1,15.3,37.7-6.3,50.7c-14.8,8.9-31.3,11.8-48.1,13.2
	C310.1,308.1,306.6,307.8,303.1,307.8z"/>
<path class="st3" d="M298.6,662.8c21-1.1,41.8,1.2,62,8.2c5.7,2,11.1,4.4,16.1,7.9c9.2,6.4,10.6,13,4.4,22.5
	c-7.5,11.7-18.3,20.1-30,27.3c-47.1,28.9-96.8,14-129.1-20.1c-0.3-0.4-0.7-0.8-1-1.1c-8.9-10.7-8-18.3,3.7-26
	c14.5-9.6,30.9-13.5,47.7-16.5C281,663.4,289.6,662.5,298.6,662.8z"/>
<path class="st3" d="M91,407.5c-1.2,29.6-5,57.8-15.9,84.7c-2.3,5.7-5.2,11.2-9.2,15.9c-5.8,6.8-11.3,7.1-17.6,0.8
	c-13.7-13.8-20.5-31-23-49.8c-3.2-24.1,1.5-46.7,15.7-66.9c7.2-10.2,16.3-18.4,26.9-24.9c6.7-4.1,12.3-2.8,16.4,4.1
	c3.7,6.2,4.8,13.1,5.7,20C90.5,397,90.7,402.6,91,407.5z"/>
<path class="st3" d="M502.9,407.8c-0.2-10.8,0.1-20.6,2.9-30.2c0.6-1.9,1.2-3.8,2-5.6c4.3-9.8,10.4-11.7,19.3-6.1
	c52.6,33.3,51.8,103.3,20,138.8c-7.9,8.8-14.4,8.6-21.3-1.1c-9-12.6-12.8-27.3-16.4-42c-1.8-7.6-3.2-15.3-4.3-23
	C503.7,428.1,502.5,417.5,502.9,407.8z"/>
<path class="st3" d="M82.1,328.3c1.2-34.1,12.9-62.8,42.7-81.9c21-13.5,44.4-17.3,68.9-14.8c2.6,0.3,5.3,0.5,7.9,1
	c4.7,0.9,5.6,2.5,3.7,6.9c-3,7-7.9,12.8-13,18.3c-25.3,27.2-53,51.6-84.2,71.8c-5.2,3.4-10.6,6.3-16.5,8.2c-7.3,2.4-9.5,0.7-9.5-6.9
	C82.1,330,82.1,329.1,82.1,328.3z"/>
<path class="st3" d="M412,232.9c28.2,0.6,53.3,8.6,73.3,29.5c14.7,15.4,22.1,34.1,24.7,54.9c0.7,5.8,1.2,11.6,0.9,17.4
	c-0.2,5.2-2.3,6.8-7.4,5.5c-8.6-2.1-15.9-6.7-23-11.6c-32.2-22.2-61.8-47.3-86.8-77.5c-2.6-3.1-4.7-6.5-6.2-10.2
	c-1.3-3.4-0.7-5.7,3.6-6.2C398,233.8,404.9,232.9,412,232.9z"/>
</svg>
